<svg viewBox="0 0 208 37"
  xmlns="http://www.w3.org/2000/svg" aria-labelledby="lbh-logo-svg-title-header">
  <path d="M36 16c0-6.96-3.94-13-9.7-16v12.03H9.7V0a18.03 18.03 0 0 0 0 32V19.97h16.6V32c5.76-3 9.7-9.04 9.7-16m6-15h8.86v10.13h8.28V1H68v29h-8.86V18.57h-8.28V30H42V1m49.02 15.18c0-4.03.08-8.18-10.09-8.18-5.04 0-10.7.97-10.95 6.85h7.55c.04-.9.53-2.17 3.03-2.17 1.31 0 2.67.53 2.67 1.95 0 1.34-1.11 1.67-2.22 1.87-4.14.77-12.01.53-12.01 7.19 0 4.39 3.4 6.31 7.5 6.31 2.63 0 5.12-.56 6.85-2.48h.08c-.04.52.08 1.37.29 1.93H92c-.9-1.33-.98-3.11-.98-4.68v-8.58zm-7.8 5.8c-.12 2.18-1.55 3.27-3.4 3.27-1.47 0-2.54-.97-2.54-1.93 0-1.41.95-1.86 2.75-2.26a14.1 14.1 0 0 0 3.2-1v1.93zm23.69-5.5c-.09-.85-.38-1.53-.92-1.97-.5-.44-1.2-.68-2.08-.68-3.17 0-3.63 2.66-3.63 5.2 0 2.53.46 5.14 3.63 5.14 1.79 0 3.04-1.41 3.2-3.06H115c-.8 5.7-5.42 8.89-11.26 8.89C97.22 30 92 25.64 92 19.02S97.22 8 103.74 8c5.67 0 10.5 2.7 11 8.48h-7.83M115 1h8.25v14.02l5.23-6.08h9.31l-7.69 7.94L139 30h-9.9l-4.4-7.65-1.45 1.55V30H115V1m24 7.55h7.8v2.72h.07c1.5-2.15 3.66-3.27 6.87-3.27 3.79 0 7.26 2.36 7.26 7.29V30h-8.08V18.76c0-2.48-.28-4.22-2.64-4.22-1.38 0-3.2.7-3.2 4.14V30H139V8.55m46 12.21C185 12.62 181.4 8 173.08 8 166.45 8 162 12.93 162 19.03c0 7.03 5.06 10.97 11.76 10.97 4.77 0 9.18-2.09 10.8-6.59h-7.48c-.64 1-2.06 1.5-3.35 1.5-2.51 0-3.88-1.73-4.09-4.15H185zm-15.31-4.14c.36-2.27 1.73-3.53 4.11-3.53a3.45 3.45 0 0 1 3.52 3.53h-7.64zm31.27 11.9c-.66 1.88-1.4 4.28-2.67 5.87-2.13 2.65-5.4 2.61-8.56 2.61h-3.68v-6.44h1.88c.82 0 1.88.08 2.46-.2.49-.25.78-.66.78-1.6 0-1.01-3.12-8.8-3.57-10.02L184 9h8.68l3.4 12.14h.08L199.6 9h8.4l-7.04 19.52" fill-rule="evenodd" fill="currentColor"/>
</svg>