<svg xmlns="http://www.w3.org/2000/svg" viewBox="0 0 41.01 16.774">
   <path d="M-145.377 260.166c.873 0 1.693.265 2.328.715l-.238-.609h2.514l.846 3.016.185.688s.106-.344.186-.688l.873-3.016h2.513l-.211.635c.635-.476 1.455-.714 2.328-.714.132 0 .238 0 .37.026l-1.296-4.868-13.018 3.492.503 1.905a4.027 4.027 0 0 1 2.117-.582zm11.324 2.196c-.767 0-1.244.582-1.244 1.297 0 .767.503 1.27 1.244 1.27.74 0 1.244-.53 1.244-1.27 0-.106 0-.212-.027-.291l-.053-.16a1.176 1.176 0 0 0-1.164-.846zm-10.107 1.27c0-.714-.476-1.296-1.244-1.296-.767 0-1.243.582-1.243 1.296 0 .768.503 1.27 1.243 1.27.741.027 1.244-.502 1.244-1.27zm10.107 3.387c-1.826 0-3.334-1.032-3.625-2.778l-1.032 2.672h-2.037l-1.032-2.672c-.29 1.746-1.799 2.778-3.625 2.778-.132 0-.29 0-.423-.027l1.296 4.869 13.018-3.493-.503-1.878c-.555.344-1.27.529-2.037.529zm4.604-3.016c0 .74.476 1.323 1.296 1.323.953 0 1.217-.582 1.482-.582.132 0 .264.105.264.317 0 .344-.9.9-1.746.9-1.402 0-2.01-1.085-2.01-2.25 0-1.19.74-2.248 1.957-2.248 1.19 0 1.879 1.084 1.879 2.143 0 .264-.08.397-.397.397zm2.407-.556c0-.635-.37-1.35-1.164-1.35-.9-.026-1.217.689-1.243 1.35zm1.297-1.587c0-.239.132-.397.37-.397.212 0 .37.158.37.397v.185l.027.026c.318-.423.767-.582 1.217-.582.688 0 1.535.424 1.535 1.667v2.434c0 .238-.132.397-.37.397-.212 0-.371-.159-.371-.397v-2.381c0-.767-.53-1.085-1.005-1.085-.477 0-1.006.318-1.006 1.085v2.381c0 .238-.132.397-.37.397-.212 0-.37-.159-.37-.397v-3.73zm4.815 2.143c0 .74.477 1.323 1.297 1.323.952 0 1.217-.582 1.481-.582.133 0 .265.105.265.317 0 .344-.9.9-1.746.9-1.403 0-2.011-1.085-2.011-2.25 0-1.19.74-2.248 1.958-2.248 1.19 0 1.878 1.084 1.878 2.143 0 .264-.079.397-.397.397zm2.408-.556c0-.635-.37-1.35-1.164-1.35-.9-.026-1.217.689-1.244 1.35zm1.296-1.587c0-.239.133-.397.37-.397.213 0 .371.158.371.397v.37h.027c.159-.344.555-.767.979-.767.264 0 .397.158.397.37s-.16.344-.45.397c-.424.08-.953.397-.953 1.244v2.09c0 .238-.132.397-.37.397-.212 0-.37-.16-.37-.397zm6.086 3.73c0 1.297-.794 2.09-1.985 2.09-.74 0-1.666-.423-1.666-.793 0-.16.079-.344.317-.344.318 0 .662.502 1.429.502.926 0 1.19-.714 1.19-1.349v-.37h-.026c-.212.37-.609.635-1.111.635-1.244 0-1.932-1.085-1.932-2.25 0-1.164.688-2.248 1.932-2.248.476 0 .926.29 1.111.555h.026v-.185c0-.264.186-.344.397-.344.133 0 .344.106.344.344v3.757zm-1.852-.264c.9 0 1.19-.874 1.19-1.614 0-.741-.317-1.614-1.19-1.614-.9 0-1.19.873-1.19 1.614 0 .74.29 1.614 1.19 1.614zm2.487-3.149c-.08-.238-.106-.317-.106-.397 0-.185.159-.317.318-.317.185 0 .317.106.37.264l1.005 3.017h.027l.979-3.017c.053-.158.159-.264.344-.264.159 0 .317.132.317.317 0 .08-.026.159-.106.397l-1.825 5.212a.365.365 0 0 1-.344.265.322.322 0 0 1-.318-.318c0-.079.027-.158.106-.396l.45-1.218z" style="fill:currentColor;fill-opacity:1;stroke-width:.26458332" transform="translate(148.129 -255.219)"/>
</svg>