<svg version="1.0"
	xmlns="http://www.w3.org/2000/svg" viewBox="0 130 900 350" style="enable-background:new 0 0 862 601.2" xml:space="preserve">
	<g fill="currentColor">
		<path d="M344.3 298.4v-21h-30.2v-24.2h-24.5v24.2h-25.5v21h25.5v31.7c0 15 2.9 23.9 9.1 30.1 8.4 8.4 19.8 10.5 29.4 10.5 11.5 0 15.2-1.9 15.2-1.9v-20.7c-4.7.7-9.5 1-14.3.9-2.9 0-8-.6-11.3-4-2.9-2.9-3.6-7.6-3.6-11.6v-35h30.2z"/>
		<path class="st0" d="M412.3 275.5c-10.3 0-19.4 3.6-25 9.2-.6.6-1.2 1.2-1.7 1.9v-9.2H362v91.5h24.5v-57.2c5.1-8.4 14.1-13.5 24-13.5 3.4 0 6.7.3 10 1v-22.8c-2.8-.6-5.5-.8-8.2-.9zM636 277.4h-25.8L585.3 332l-26.6-54.5h-27l40.9 82.2-18.5 39.3h25.6L636 277.4zM497.9 277.4v7.3c-7.7-5.9-17.1-9.1-26.8-9.1-24.7 0-45 20.5-45 47.7s20.9 47.5 46.1 47.5c15.7 0 24.7-8.3 25.6-9.1v7.2h23.5v-91.5h-23.4zm-23.1 70.8c-13.2 0-24.1-10-24.1-24.9 0-14.2 10.1-25.1 23.5-25.1 8.8.1 17.1 4.1 22.6 10.9v28.1c-5.1 7-13.3 11-22 11zM634.8 338.6c8.8.2 15.8 7.5 15.6 16.4-.2 8.8-7.5 15.8-16.4 15.6s-15.8-7.5-15.6-16.4c.1-6.4 4.1-12.1 10.1-14.5 2.1-.8 4.2-1.1 6.3-1.1zM680 231.1c8.6.2 15.5 7.3 15.4 15.9-.2 8.6-7.3 15.5-15.9 15.4s-15.5-7.3-15.4-15.9c.1-6.3 4-11.9 9.9-14.3 1.8-.8 3.9-1.2 6-1.1zM692.2 277.4h-24.5v91.5h24.5v-91.5zM757.3 275.5c-26.9 0-48.7 20.7-48.7 47.6s21.8 47.6 48.7 47.6 48.7-20.8 48.7-47.6-21.8-47.6-48.7-47.6zm0 72.7c-13.3 0-24.2-10.1-24.2-25 0-14.7 10.8-25 24.2-25s24.2 10.3 24.2 25c0 14.9-10.8 25-24.2 25zM178.4 202.2c-27.1 0-49 21.9-49 49v9.2h24.5v-9.2c0-13.5 11-24.5 24.5-24.5s24.5 11 24.5 24.5-11 24.5-24.5 24.5H105C78 277 57.1 300 58.5 327.1c1.2 25.2 21.4 45.3 46.5 46.5h9.2v-24.5H105c-13.5 0-24.5-11-24.5-24.5s11-24.5 24.5-24.5h24.5v73.5H154v-73.4h24.5c27 .9 49.7-20.4 50.5-47.4s-20.4-49.7-47.4-50.5c-1.1-.1-2.1-.1-3.2-.1z"/>
	</g>
</svg>