<svg xmlns="http://www.w3.org/2000/svg" viewBox="0 0 500 100" xml:space="preserve">
	<g fill="currentColor">
		<path d="M156.778 26.838c0-.674.243-1.257.736-1.75.491-.49 1.073-.737 1.749-.737h11.6c.675 0 1.256.247 1.749.737.49.493.736 1.076.736 1.75v23.289c0 2.641.583 4.759 1.75 6.354 1.165 1.592 3.097 2.39 5.798 2.39 2.699 0 4.619-.798 5.755-2.39 1.133-1.596 1.703-3.714 1.703-6.354V26.838c0-.674.242-1.257.735-1.75.491-.49 1.07-.737 1.748-.737h11.6c.675 0 1.256.247 1.748.737.49.493.738 1.076.738 1.75v42.897c0 .673-.248 1.259-.738 1.747-.492.493-1.073.737-1.748.737h-10.68c-.675 0-1.256-.244-1.748-.737a2.38 2.38 0 0 1-.737-1.747v-2.12a13.463 13.463 0 0 1-1.795 1.981c-.705.646-1.58 1.229-2.624 1.748-1.043.522-2.253.954-3.635 1.288-1.381.339-3.024.508-4.924.508-5.953 0-10.694-1.687-14.222-5.063-3.531-3.375-5.293-8.685-5.293-15.922V26.838zM264.658 69.735c0 .673-.245 1.259-.736 1.747-.49.493-1.073.737-1.746.737h-11.599c-.678 0-1.258-.244-1.75-.737a2.387 2.387 0 0 1-.736-1.747V46.447c0-2.642-.645-4.758-1.933-6.354-1.289-1.594-3.313-2.392-6.076-2.392-2.762 0-4.771.798-6.028 2.392-1.258 1.597-1.89 3.713-1.89 6.354v23.288c0 .673-.244 1.259-.733 1.747-.493.493-1.075.737-1.751.737h-11.598a2.376 2.376 0 0 1-1.747-.737 2.377 2.377 0 0 1-.738-1.747V26.838c0-.674.245-1.257.738-1.75.489-.49 1.073-.737 1.747-.737h11.14c.674 0 1.256.247 1.748.737.489.493.735 1.076.735 1.75v2.118c.489-.612 1.105-1.257 1.842-1.934.737-.673 1.626-1.272 2.669-1.793 1.043-.522 2.256-.952 3.636-1.292 1.383-.336 2.993-.506 4.832-.506 2.95 0 5.646.417 8.104 1.245 2.451.828 4.555 2.103 6.303 3.818 1.749 1.718 3.115 3.899 4.099 6.536.979 2.639 1.47 5.769 1.47 9.39v25.315zM293.655 23.431c1.78 0 3.347.186 4.695.556 1.348.364 2.514.827 3.496 1.379.983.553 1.811 1.149 2.488 1.795.673.644 1.226 1.241 1.654 1.794V9.349c0-.674.248-1.258.738-1.749a2.38 2.38 0 0 1 1.75-.734h11.596c.676 0 1.257.243 1.749.734.489.491.736 1.075.736 1.749v60.387a2.39 2.39 0 0 1-.736 1.747c-.492.493-1.073.737-1.749.737h-11.136a2.384 2.384 0 0 1-1.752-.737 2.386 2.386 0 0 1-.735-1.747v-2.12a26.544 26.544 0 0 1-1.794 1.981c-.646.646-1.445 1.229-2.393 1.748-.954.522-2.118.954-3.499 1.288-1.38.339-3.083.508-5.109.508-2.76 0-5.371-.417-7.824-1.244-2.455-.829-4.603-2.116-6.443-3.863-1.841-1.751-3.331-3.944-4.464-6.585-1.137-2.638-1.764-5.768-1.888-9.389-.063-.92-.093-2.163-.093-3.726 0-1.565.029-2.809.093-3.729.124-3.62.751-6.75 1.888-9.389 1.133-2.64 2.623-4.833 4.464-6.583 1.841-1.746 3.988-3.051 6.443-3.91 2.454-.86 5.066-1.292 7.825-1.292zm-4.14 22.278a23.863 23.863 0 0 0 0 5.153c.183 2.151.887 4.023 2.116 5.619 1.227 1.592 3.282 2.39 6.165 2.39 1.352 0 2.518-.216 3.501-.645.979-.426 1.796-.995 2.439-1.702a8.327 8.327 0 0 0 1.52-2.346c.367-.858.611-1.751.733-2.67.121-.921.187-1.993.187-3.222s-.065-2.302-.187-3.221a10.168 10.168 0 0 0-.733-2.671 8.434 8.434 0 0 0-1.52-2.349c-.644-.704-1.461-1.272-2.439-1.702-.983-.429-2.149-.643-3.501-.643-2.883 0-4.938.798-6.165 2.392-1.23 1.597-1.934 3.469-2.116 5.617zM365.82 24.352c.677 0 1.259.247 1.75.737.489.493.737 1.076.737 1.75v9.298c0 .674-.248 1.257-.737 1.749-.491.491-1.073.735-1.75.735h-8.376c-5.646 0-8.466 2.823-8.466 8.469v22.646c0 .673-.247 1.259-.739 1.747a2.383 2.383 0 0 1-1.747.737h-11.604c-.673 0-1.254-.244-1.743-.737a2.367 2.367 0 0 1-.739-1.747V26.838c0-.674.243-1.257.739-1.75.489-.49 1.07-.737 1.743-.737h10.683c.674 0 1.256.247 1.747.737.493.493.737 1.076.737 1.75v2.118c1.409-1.352 3.111-2.452 5.108-3.313 1.992-.862 4.373-1.291 7.136-1.291h5.521zM369.964 58.596c0-4.048 1.547-7.395 4.648-10.031 3.099-2.639 8.146-4.572 15.141-5.801l10.771-1.84c0-1.473-.4-2.685-1.196-3.637-.796-.951-2.181-1.428-4.144-1.428-1.412 0-2.5.2-3.267.598-.77.401-1.332.752-1.702 1.061-.554.491-1.076.798-1.566.919-.49.123-1.075.183-1.746.183h-11.692c-.617 0-1.121-.183-1.52-.552-.398-.367-.568-.859-.507-1.472.124-1.411.737-2.884 1.843-4.419 1.105-1.534 2.621-2.946 4.556-4.235 1.932-1.29 4.233-2.361 6.903-3.22 2.671-.859 5.572-1.291 8.698-1.291 3.744 0 6.998.46 9.762 1.383 2.76.92 5.043 2.195 6.854 3.818a14.891 14.891 0 0 1 4.004 5.801c.858 2.241 1.288 4.709 1.288 7.412v27.891a2.39 2.39 0 0 1-.735 1.747c-.492.493-1.074.737-1.749.737h-11.6a2.378 2.378 0 0 1-1.748-.737 2.39 2.39 0 0 1-.736-1.747v-2.58c-1.474 1.843-3.298 3.302-5.479 4.375-2.18 1.074-5.047 1.61-8.606 1.61-2.639 0-4.986-.37-7.041-1.105-2.057-.735-3.771-1.748-5.154-3.037a13.074 13.074 0 0 1-3.176-4.604c-.735-1.778-1.104-3.714-1.104-5.799zm20.987 2.119c1.351 0 2.605-.23 3.773-.691 1.165-.462 2.177-1.089 3.038-1.887a8.762 8.762 0 0 0 2.025-2.807 8.225 8.225 0 0 0 .736-3.454l-8.466 1.29c-1.658.305-2.994.826-4.006 1.564-1.014.74-1.521 1.688-1.521 2.854 0 1.164.384 1.978 1.151 2.439.769.461 1.856.692 3.27.692zM147.441 59.365a2.42 2.42 0 0 0-1.674-.736h-3.944c-3.497 0-5.577-2.077-5.577-5.525V38.916h9.315a2.43 2.43 0 0 0 1.617-.735c.445-.448.681-.969.731-1.566V26.72a2.458 2.458 0 0 0-.731-1.565c-.458-.457-1-.693-1.613-.73-.018-.002-9.335 0-9.335 0V9.664a2.807 2.807 0 0 0-4.332-2.355 2.775 2.775 0 0 0-.55.462c-.052.063-.12.144-.201.246-2.698 3.3-21.544 26.327-21.547 26.331a2.857 2.857 0 0 0-.364.652 2.673 2.673 0 0 0-.186 1.059v.208c.004.358.075.692.205 1.004l.031.065a2.813 2.813 0 0 0 2.534 1.589l7.862-.003v17.026c0 10.689 6.466 17.193 17.101 17.193h8.926c.664-.012 1.241-.262 1.733-.748a2.43 2.43 0 0 0 .728-1.565v-9.895a2.437 2.437 0 0 0-.729-1.568zM44.18 68.96c.37 2.864 1.46 5.215 3.239 6.988a12.014 12.014 0 0 0 8.569 3.552c2.311 0 4.557-.651 6.5-1.891l.249-.133.067-.076a12.127 12.127 0 0 0 2.112-1.827c.074-.081 27.387-33.441 27.594-33.707.531-.7 1.373-2.319 1.607-2.875h.003c.576-1.453.857-2.985.833-4.523v-.343a11.801 11.801 0 0 0-1.098-4.823l-.055-.121a12.144 12.144 0 0 0-9.029-6.689l-.154-.027-18.05.003a3.072 3.072 0 0 0-2.134.916 3.046 3.046 0 0 0-.896 1.957l-.006 4.578.006.141c.051.739.359 1.415.908 1.972.541.532 1.228.84 2.113.892l16.497-.003c.108 0 .211.022.315.045l.035.004c.038.009.074.023.111.036a1.501 1.501 0 0 1 .898.754c.109.208.189.434.189.687a1.481 1.481 0 0 1-.119.554c-.02.039-.076.16-.127.267a3.403 3.403 0 0 1-.073.143c-.227.277-23.49 28.705-26.817 32.767-.102.117-.439.452-.489.498a1.56 1.56 0 0 1-1.913-.206 1.524 1.524 0 0 1-.446-1.09l-.002-17.3a3.072 3.072 0 0 0-.917-2.136 3.069 3.069 0 0 0-1.939-.896l-4.597-.005-.154.005a3.084 3.084 0 0 0-1.946.901c-.538.54-.85 1.23-.903 2.124v18.631l.019.256z"/>
		<path d="m84.417 33.757-.001-.002.001.004zM54.505 11.042c-.369-2.862-1.46-5.216-3.239-6.991A12.022 12.022 0 0 0 42.698.5c-2.312 0-4.559.652-6.5 1.891l-.248.134-.069.075a12.163 12.163 0 0 0-2.111 1.827c-.074.081-27.387 33.443-27.595 33.707-.53.702-1.373 2.319-1.607 2.876h-.004a11.771 11.771 0 0 0-.833 4.524v.343a11.858 11.858 0 0 0 1.098 4.821l.056.12a12.139 12.139 0 0 0 9.029 6.689l.153.026 18.049-.003a3.068 3.068 0 0 0 2.134-.917 3.039 3.039 0 0 0 .896-1.956l.006-4.577-.006-.143c-.052-.738-.358-1.411-.909-1.971-.541-.533-1.228-.84-2.113-.893l-16.497.002c-.107 0-.21-.02-.315-.043l-.034-.005c-.039-.008-.075-.023-.112-.033a1.509 1.509 0 0 1-.896-.751l-.002-.002v-.002a1.473 1.473 0 0 1-.188-.687c0-.194.048-.374.116-.545l.002-.01.128-.268c.028-.058.056-.111.073-.142l26.816-32.769c.102-.117.44-.452.489-.497a1.562 1.562 0 0 1 1.913.207c.286.286.444.666.445 1.089l.003 17.3c.018.812.331 1.548.917 2.136a3.061 3.061 0 0 0 1.939.894l4.596.005.156-.005a3.079 3.079 0 0 0 1.946-.901c.538-.54.848-1.229.902-2.122V11.296l-.016-.254z"/>
		<path d="m14.268 46.244.002.002-.002-.004z"/>
	</g>
</svg>